<svg width="512" height="512" viewBox="0 0 512 512" fill="none" xmlns="http://www.w3.org/2000/svg">
<rect width="512" height="512" rx="72" fill="#101010"/>
<path d="M379.467 223.364H307.365C306.853 217.398 305.49 211.986 303.274 207.128C301.143 202.27 298.16 198.094 294.325 194.599C290.575 191.02 286.015 188.293 280.646 186.418C275.277 184.457 269.183 183.477 262.365 183.477C250.433 183.477 240.333 186.375 232.066 192.17C223.885 197.966 217.663 206.276 213.402 217.099C209.225 227.923 207.137 240.92 207.137 256.091C207.137 272.114 209.268 285.537 213.529 296.361C217.876 307.099 224.14 315.196 232.322 320.651C240.504 326.02 250.348 328.705 261.853 328.705C268.416 328.705 274.297 327.895 279.495 326.276C284.694 324.571 289.211 322.142 293.047 318.989C296.882 315.835 299.993 312.043 302.379 307.611C304.851 303.094 306.512 298.023 307.365 292.398L379.467 292.909C378.615 303.989 375.504 315.281 370.135 326.787C364.765 338.207 357.137 348.776 347.251 358.491C337.45 368.122 325.305 375.878 310.816 381.759C296.328 387.639 279.495 390.58 260.319 390.58C236.285 390.58 214.723 385.423 195.632 375.111C176.626 364.798 161.583 349.628 150.504 329.599C139.51 309.571 134.012 285.068 134.012 256.091C134.012 226.943 139.637 202.398 150.887 182.455C162.137 162.426 177.308 147.298 196.399 137.071C215.49 126.759 236.797 121.602 260.319 121.602C276.853 121.602 292.066 123.861 305.958 128.378C319.851 132.895 332.038 139.5 342.521 148.193C353.004 156.801 361.441 167.412 367.833 180.026C374.226 192.639 378.103 207.085 379.467 223.364Z" fill="white"/>
</svg>
